<svg
  width="32"
  height="32"
  viewBox="0 0 100 100"
  fill="none"
  xmlns="http://www.w3.org/2000/svg"
>
  <!-- Warped swan neck curving into blade -->
  <path
    d="M25 85 C15 75, 12 55, 20 40 C28 25, 35 15, 50 10 C55 8, 58 12, 55 18 C52 24, 48 28, 45 35 C42 42, 44 48, 50 50 C56 52, 65 48, 75 35 C85 22, 90 15, 95 12"
    stroke="#0A0A0A"
    stroke-width="4"
    stroke-linecap="round"
    fill="none"
  />
  <!-- Swan body - ink splash effect -->
  <path
    d="M25 85 C30 80, 40 78, 50 80 C60 82, 68 78, 72 70 C76 62, 72 55, 65 52"
    stroke="#0A0A0A"
    stroke-width="3"
    stroke-linecap="round"
    fill="none"
  />
  <!-- Blade edge - sharp diagonal -->
  <path
    d="M75 35 L95 12"
    stroke="#0A0A0A"
    stroke-width="5"
    stroke-linecap="square"
  />
  <!-- Ink drip accent -->
  <circle cx="22" cy="88" r="4" fill="#0A0A0A" />
  <ellipse cx="32" cy="92" rx="3" ry="2" fill="#0A0A0A" />
</svg>
